<svg viewBox="0 0 36 36" fill="none" xmlns="http://www.w3.org/2000/svg">
<path d="M12.35 8.99996L0.45 2.04996C0.40438 2.02362 0.352629 2.00976 0.299952 2.00977C0.247275 2.00977 0.195528 2.02365 0.149917 2.05001C0.104305 2.07636 0.066437 2.11426 0.0401203 2.15989C0.0138035 2.20552 -3.37245e-05 2.25728 6.17234e-08 2.30996V20.91C6.17234e-08 21.0166 0.0500001 21.1 0.15 21.16L4.75 23.86C4.79458 23.8836 4.8444 23.8955 4.89484 23.8948C4.94528 23.894 4.99472 23.8806 5.03858 23.8557C5.08245 23.8307 5.11932 23.7952 5.14578 23.7522C5.17225 23.7093 5.18746 23.6603 5.19 23.61V11.29C5.19 11.19 5.29 11.14 5.37 11.19L12.36 15.19C12.73 15.41 13.19 15.4 13.56 15.19L20.39 11.19C20.47 11.14 20.57 11.19 20.57 11.29V17.45C20.57 17.65 20.47 17.85 20.29 17.96L13.51 22.13C13.4677 22.1566 13.4327 22.1935 13.4082 22.2372C13.3838 22.2808 13.3706 22.3299 13.37 22.38V28.45C13.37 28.5566 13.4167 28.64 13.51 28.7L22.52 34.4C22.9 34.65 23.39 34.65 23.78 34.42L35.4 27.5C35.77 27.28 35.99 26.89 35.99 26.47V14.44C35.9911 14.3858 35.9776 14.3323 35.9507 14.2852C35.9239 14.2381 35.8849 14.1992 35.8377 14.1725C35.7905 14.1459 35.737 14.1325 35.6828 14.1338C35.6286 14.1351 35.5758 14.151 35.53 14.18L31.4 16.7C31.04 16.92 30.82 17.3 30.82 17.73V23.93C30.82 24.0366 30.77 24.1233 30.67 24.19L23.76 28.27C23.5741 28.3809 23.3615 28.4395 23.145 28.4395C22.9285 28.4395 22.7159 28.3809 22.53 28.27L18.21 25.67C18.1852 25.6535 18.1649 25.6312 18.1509 25.6051C18.1368 25.5789 18.1295 25.5497 18.1295 25.52C18.1295 25.4903 18.1368 25.461 18.1509 25.4348C18.1649 25.4087 18.1852 25.3864 18.21 25.37L25.23 20.73C25.56 20.51 25.77 20.13 25.77 19.73V2.31996C25.7693 2.26663 25.7545 2.21444 25.7269 2.16877C25.6994 2.1231 25.6601 2.0856 25.6133 2.06013C25.5664 2.03466 25.5136 2.02214 25.4603 2.02387C25.407 2.0256 25.3551 2.04151 25.31 2.06996L13.57 8.98996C13.3852 9.09903 13.1746 9.15657 12.96 9.15657C12.7454 9.15657 12.5348 9.09903 12.35 8.98996" fill="currentColor"/>
<path d="M35.9999 2.82985V7.20985C35.9999 7.60985 35.7899 8.00985 35.4399 8.21985L31.3199 10.7999C31.2741 10.8288 31.2213 10.8447 31.1671 10.846C31.1129 10.8473 31.0594 10.834 31.0122 10.8073C30.9651 10.7806 30.926 10.7417 30.8992 10.6946C30.8724 10.6475 30.8588 10.594 30.8599 10.5399V5.96985C30.8599 5.53985 31.0899 5.13985 31.4599 4.91985L35.5599 2.56985C35.6053 2.54593 35.6559 2.53401 35.7072 2.53524C35.7584 2.53647 35.8085 2.55081 35.8526 2.57688C35.8967 2.60295 35.9334 2.63989 35.9592 2.68417C35.985 2.72846 35.999 2.77861 35.9999 2.82985Z" fill="currentColor"/>
</svg>
